<svg width="25" height="25" viewBox="0 0 25 25" fill="none" xmlns="http://www.w3.org/2000/svg">
<path d="M22.9955 24.4837C10.199 24.5017 0.486514 14.6737 0.500014 1.98826C0.500014 1.15876 1.17201 0.483765 2.00001 0.483765H5.96001C6.70251 0.483765 7.33401 1.02976 7.44351 1.76476C7.70466 3.52734 8.21739 5.24333 8.96601 6.86026L9.12051 7.19326C9.22429 7.41734 9.24661 7.67062 9.18363 7.90941C9.12065 8.14819 8.97631 8.35751 8.77551 8.50126C7.54851 9.37726 7.08051 11.1398 8.03601 12.5138C9.23898 14.2437 10.7404 15.7457 12.47 16.9492C13.8455 17.9032 15.608 17.4352 16.4825 16.2097C16.6261 16.0083 16.8356 15.8635 17.0747 15.8002C17.3138 15.7369 17.5676 15.7592 17.792 15.8632L18.1235 16.0162C19.7405 16.7662 21.4565 17.2792 23.219 17.5402C23.954 17.6497 24.5 18.2812 24.5 19.0252V22.9837C24.5 23.1809 24.4611 23.376 24.3857 23.5581C24.3102 23.7402 24.1996 23.9056 24.0601 24.0449C23.9207 24.1842 23.7551 24.2947 23.573 24.37C23.3908 24.4453 23.1956 24.4839 22.9985 24.4837H22.9955Z" fill="black"/>
</svg>
