<svg width="540" height="125" viewBox="0 0 540 125" fill="none" xmlns="http://www.w3.org/2000/svg">
<g clip-path="url(#clip0_151_1484)">
<path d="M0 125H350.147" stroke="url(#paint0_linear_151_1484)" stroke-width="6"/>
<path d="M0 125H350.147" stroke="url(#paint1_linear_151_1484)" stroke-width="6"/>
<path d="M41.8923 52.2223C37.7053 52.2223 36.4581 52.2223 29.542 52.2223H20.1558V41.5026H29.1467C34.1856 41.5026 38.3355 41.5026 41.8923 41.5026V27.5374C37.9402 27.6355 33.8893 27.5374 28.7515 27.5374H20.1558V17.0142H28.6526C35.1735 17.0142 38.5329 17.2107 42.0897 17.3091L41.8923 1.27844H0C0.0987916 5.60591 0.296413 12.8836 0.296413 24.6853V43.863C0.296413 54.976 0.296413 63.5326 0 67.8597H42.0897L41.8923 52.2223Z" fill="url(#paint2_linear_151_1484)"/>
<path d="M41.8923 52.2223C37.7053 52.2223 36.4581 52.2223 29.542 52.2223H20.1558V41.5026H29.1467C34.1856 41.5026 38.3355 41.5026 41.8923 41.5026V27.5374C37.9402 27.6355 33.8893 27.5374 28.7515 27.5374H20.1558V17.0142H28.6526C35.1735 17.0142 38.5329 17.2107 42.0897 17.3091L41.8923 1.27844H0C0.0987916 5.60591 0.296413 12.8836 0.296413 24.6853V43.863C0.296413 54.976 0.296413 63.5326 0 67.8597H42.0897L41.8923 52.2223Z" fill="url(#paint3_linear_151_1484)"/>
<path d="M113.153 33.7332C113.153 12.195 101.396 1.18005 79.5607 1.18005C75.6087 1.18005 62.7642 1.18005 52.785 1.18005C52.9828 4.91733 52.785 12.2935 52.785 24.0951V44.7482C52.785 57.4349 52.9828 63.3358 52.785 67.8597C61.7763 67.8597 72.3482 67.8597 76.2013 67.8597C97.8392 67.8597 113.153 54.5827 113.153 33.7332ZM92.8989 34.5199C92.8989 45.338 86.8721 52.3208 77.7823 52.3208C76.2013 52.3208 74.4229 52.3208 72.6445 52.3208V17.1123C74.4229 17.1123 76.5966 17.1123 78.4739 17.1123C87.1684 17.1123 92.8989 23.3084 92.8989 34.5199Z" fill="url(#paint4_linear_151_1484)"/>
<path d="M113.153 33.7332C113.153 12.195 101.396 1.18005 79.5607 1.18005C75.6087 1.18005 62.7642 1.18005 52.785 1.18005C52.9828 4.91733 52.785 12.2935 52.785 24.0951V44.7482C52.785 57.4349 52.9828 63.3358 52.785 67.8597C61.7763 67.8597 72.3482 67.8597 76.2013 67.8597C97.8392 67.8597 113.153 54.5827 113.153 33.7332ZM92.8989 34.5199C92.8989 45.338 86.8721 52.3208 77.7823 52.3208C76.2013 52.3208 74.4229 52.3208 72.6445 52.3208V17.1123C74.4229 17.1123 76.5966 17.1123 78.4739 17.1123C87.1684 17.1123 92.8989 23.3084 92.8989 34.5199Z" fill="url(#paint5_linear_151_1484)"/>
<path d="M179.462 1.27844H159.306C159.405 4.32747 159.603 11.1134 159.603 17.1123V39.5356C159.603 48.8787 155.947 52.0258 150.513 52.0258C144.387 52.0258 141.522 47.7968 141.522 39.8308V17.4076C141.522 11.1134 141.818 4.72081 141.917 1.27844H121.268C121.465 5.70397 121.564 10.7197 121.564 17.2107V38.6504C121.564 59.7953 130.95 69.2365 149.426 69.2365C169.385 69.2365 179.264 58.1231 179.264 38.1587V16.8174C179.264 10.8181 179.363 4.91729 179.462 1.27844Z" fill="url(#paint6_linear_151_1484)"/>
<path d="M179.462 1.27844H159.306C159.405 4.32747 159.603 11.1134 159.603 17.1123V39.5356C159.603 48.8787 155.947 52.0258 150.513 52.0258C144.387 52.0258 141.522 47.7968 141.522 39.8308V17.4076C141.522 11.1134 141.818 4.72081 141.917 1.27844H121.268C121.465 5.70397 121.564 10.7197 121.564 17.2107V38.6504C121.564 59.7953 130.95 69.2365 149.426 69.2365C169.385 69.2365 179.264 58.1231 179.264 38.1587V16.8174C179.264 10.8181 179.363 4.91729 179.462 1.27844Z" fill="url(#paint7_linear_151_1484)"/>
<path d="M241.429 2.45888C237.081 1.27849 230.363 0.196899 225.027 0.196899C203.587 0.196899 187.68 13.9652 187.68 36.192C187.68 56.8447 201.71 69.2366 222.656 69.2366C228.979 69.2366 236.389 68.0566 241.231 66.1879V48.4656C237.378 50.826 230.758 52.7141 226.213 52.7141C215.641 52.7141 208.725 46.125 208.725 35.1101C208.725 23.9967 215.938 17.2107 226.707 17.2107C231.153 17.2107 237.97 18.1348 241.429 20.3967V2.45888Z" fill="url(#paint8_linear_151_1484)"/>
<path d="M241.429 2.45888C237.081 1.27849 230.363 0.196899 225.027 0.196899C203.587 0.196899 187.68 13.9652 187.68 36.192C187.68 56.8447 201.71 69.2366 222.656 69.2366C228.979 69.2366 236.389 68.0566 241.231 66.1879V48.4656C237.378 50.826 230.758 52.7141 226.213 52.7141C215.641 52.7141 208.725 46.125 208.725 35.1101C208.725 23.9967 215.938 17.2107 226.707 17.2107C231.153 17.2107 237.97 18.1348 241.429 20.3967V2.45888Z" fill="url(#paint9_linear_151_1484)"/>
<path d="M313.826 67.8597C311.949 63.0408 308.095 51.9274 302.957 36.6834C297.425 20.4562 292.781 6.88436 291.002 1.27844H267.784C266.104 6.49102 261.856 19.3743 256.323 34.6183C250.592 50.5505 246.344 61.8604 243.972 67.8597H266.203C266.993 64.7126 268.476 59.5 269.958 54.0909H287.643C289.421 59.9918 290.706 64.3192 291.793 67.8597H313.826ZM284.086 40.5191H272.724L277.664 21.8331C277.961 20.5546 278.257 18.0958 278.257 17.0142H278.553C278.553 17.9974 278.85 20.948 279.146 21.9315L284.086 40.5191Z" fill="url(#paint10_linear_151_1484)"/>
<path d="M313.826 67.8597C311.949 63.0408 308.095 51.9274 302.957 36.6834C297.425 20.4562 292.781 6.88436 291.002 1.27844H267.784C266.104 6.49102 261.856 19.3743 256.323 34.6183C250.592 50.5505 246.344 61.8604 243.972 67.8597H266.203C266.993 64.7126 268.476 59.5 269.958 54.0909H287.643C289.421 59.9918 290.706 64.3192 291.793 67.8597H313.826ZM284.086 40.5191H272.724L277.664 21.8331C277.961 20.5546 278.257 18.0958 278.257 17.0142H278.553C278.553 17.9974 278.85 20.948 279.146 21.9315L284.086 40.5191Z" fill="url(#paint11_linear_151_1484)"/>
<path d="M364.024 18.0958L363.827 1.27844H310.08L309.783 18.0958C312.747 17.9974 316.403 17.8993 320.652 17.8993H326.876V42.8795C326.876 51.3372 326.777 62.4506 326.58 67.8597H346.538C346.439 61.9588 346.34 52.2223 346.34 42.9779V17.8993H353.059C357.011 17.8993 360.765 17.9974 364.024 18.0958Z" fill="url(#paint12_linear_151_1484)"/>
<path d="M364.024 18.0958L363.827 1.27844H310.08L309.783 18.0958C312.747 17.9974 316.403 17.8993 320.652 17.8993H326.876V42.8795C326.876 51.3372 326.777 62.4506 326.58 67.8597H346.538C346.439 61.9588 346.34 52.2223 346.34 42.9779V17.8993H353.059C357.011 17.8993 360.765 17.9974 364.024 18.0958Z" fill="url(#paint13_linear_151_1484)"/>
<path d="M391.35 1.27844H370.8C370.899 5.50748 371.096 13.1785 371.096 26.2586V43.1744C371.096 54.7796 370.899 63.1389 370.8 67.8597H391.252C391.153 62.3522 390.952 55.7631 390.952 43.9611V25.177C390.952 12.2934 391.153 5.70397 391.35 1.27844Z" fill="url(#paint14_linear_151_1484)"/>
<path d="M391.35 1.27844H370.8C370.899 5.50748 371.096 13.1785 371.096 26.2586V43.1744C371.096 54.7796 370.899 63.1389 370.8 67.8597H391.252C391.153 62.3522 390.952 55.7631 390.952 43.9611V25.177C390.952 12.2934 391.153 5.70397 391.35 1.27844Z" fill="url(#paint15_linear_151_1484)"/>
<path d="M466.833 34.2249C466.833 12.982 454.384 0 434.721 0C413.875 0 400.24 14.1621 400.24 35.11C400.24 55.7631 412.984 69.1381 433.239 69.1381C453.297 69.1381 466.833 54.878 466.833 34.2249ZM445.888 35.11C445.888 46.9117 440.056 52.7141 433.637 52.7141C426.619 52.7141 421.086 46.6168 421.086 35.0116C421.086 23.1115 426.619 16.8174 433.637 16.8174C440.454 16.8174 445.888 22.8166 445.888 35.11Z" fill="url(#paint16_linear_151_1484)"/>
<path d="M466.833 34.2249C466.833 12.982 454.384 0 434.721 0C413.875 0 400.24 14.1621 400.24 35.11C400.24 55.7631 412.984 69.1381 433.239 69.1381C453.297 69.1381 466.833 54.878 466.833 34.2249ZM445.888 35.11C445.888 46.9117 440.056 52.7141 433.637 52.7141C426.619 52.7141 421.086 46.6168 421.086 35.0116C421.086 23.1115 426.619 16.8174 433.637 16.8174C440.454 16.8174 445.888 22.8166 445.888 35.11Z" fill="url(#paint17_linear_151_1484)"/>
<path d="M540 1.27844H521.227V34.4214C521.227 35.8967 521.523 38.552 521.723 39.9289H521.424C521.03 38.9457 520.34 37.2736 519.548 36.192L495.144 1.27844H475.681C475.878 5.90082 475.878 14.8503 475.878 24.1935V43.7646C475.878 52.9109 475.78 63.9259 475.681 67.8597H494.155V32.3563C494.155 31.1763 493.958 28.9143 493.662 27.439H493.958C494.253 28.5206 495.243 30.881 495.932 31.8645L522.019 68.0565H539.901C539.901 63.6306 539.803 54.878 539.803 43.3713V23.8986C539.803 12.2934 539.803 5.60591 540 1.27844Z" fill="url(#paint18_linear_151_1484)"/>
<path d="M540 1.27844H521.227V34.4214C521.227 35.8967 521.523 38.552 521.723 39.9289H521.424C521.03 38.9457 520.34 37.2736 519.548 36.192L495.144 1.27844H475.681C475.878 5.90082 475.878 14.8503 475.878 24.1935V43.7646C475.878 52.9109 475.78 63.9259 475.681 67.8597H494.155V32.3563C494.155 31.1763 493.958 28.9143 493.662 27.439H493.958C494.253 28.5206 495.243 30.881 495.932 31.8645L522.019 68.0565H539.901C539.901 63.6306 539.803 54.878 539.803 43.3713V23.8986C539.803 12.2934 539.803 5.60591 540 1.27844Z" fill="url(#paint19_linear_151_1484)"/>
<path d="M23.5971 100.973C23.5971 93.4709 19.1222 89.0719 12.0257 89.0719C4.92912 89.0719 0 94.0506 0 101.075C0 107.451 3.77549 112.259 9.99807 112.873C11.1168 114.646 13.7736 118.193 14.7874 119.386C16.3255 119.045 20.8 118.125 22.4784 117.75C20.7652 116.249 17.8637 113.351 16.5703 111.987C20.276 110.725 23.5971 106.77 23.5971 100.973ZM16.1507 100.973C16.1507 104.996 14.4378 107.281 11.8509 107.281C9.33389 107.281 7.44613 105.235 7.44613 101.211C7.44613 97.1194 9.229 94.8346 11.8858 94.8346C14.3679 94.8346 16.1507 97.1535 16.1507 100.973Z" fill="url(#paint20_linear_151_1484)"/>
<path d="M23.5971 100.973C23.5971 93.4709 19.1222 89.0719 12.0257 89.0719C4.92912 89.0719 0 94.0506 0 101.075C0 107.451 3.77549 112.259 9.99807 112.873C11.1168 114.646 13.7736 118.193 14.7874 119.386C16.3255 119.045 20.8 118.125 22.4784 117.75C20.7652 116.249 17.8637 113.351 16.5703 111.987C20.276 110.725 23.5971 106.77 23.5971 100.973ZM16.1507 100.973C16.1507 104.996 14.4378 107.281 11.8509 107.281C9.33389 107.281 7.44613 105.235 7.44613 101.211C7.44613 97.1194 9.229 94.8346 11.8858 94.8346C14.3679 94.8346 16.1507 97.1535 16.1507 100.973Z" fill="url(#paint21_linear_151_1484)"/>
<path d="M46.9694 89.515H39.838C39.8728 90.5723 39.9429 92.9252 39.9429 95.0053V102.78C39.9429 106.019 38.6496 107.11 36.7268 107.11C34.5592 107.11 33.5456 105.644 33.5456 102.882V95.1075C33.5456 92.9252 33.6505 90.7085 33.6854 89.515H26.3789C26.449 91.0498 26.4839 92.7886 26.4839 95.0393V102.473C26.4839 109.804 29.805 113.078 36.3422 113.078C43.4039 113.078 46.8997 109.225 46.8997 102.302V94.9027C46.8997 92.8226 46.9345 90.777 46.9694 89.515Z" fill="url(#paint22_linear_151_1484)"/>
<path d="M46.9694 89.515H39.838C39.8728 90.5723 39.9429 92.9252 39.9429 95.0053V102.78C39.9429 106.019 38.6496 107.11 36.7268 107.11C34.5592 107.11 33.5456 105.644 33.5456 102.882V95.1075C33.5456 92.9252 33.6505 90.7085 33.6854 89.515H26.3789C26.449 91.0498 26.4839 92.7886 26.4839 95.0393V102.473C26.4839 109.804 29.805 113.078 36.3422 113.078C43.4039 113.078 46.8997 109.225 46.8997 102.302V94.9027C46.8997 92.8226 46.9345 90.777 46.9694 89.515Z" fill="url(#paint23_linear_151_1484)"/>
<path d="M72.2516 112.6C71.5873 110.93 70.2238 107.076 68.406 101.791C66.4484 96.1647 64.8053 91.4589 64.1762 89.515H55.961C55.3665 91.3226 53.8636 95.7893 51.9059 101.075C49.8782 106.599 48.3749 110.52 47.5359 112.6H55.4017C55.6814 111.509 56.2054 109.702 56.7299 107.826H62.9875C63.6169 109.872 64.0713 111.373 64.4559 112.6H72.2516ZM61.729 103.121H57.7087L59.4568 96.6419C59.5618 96.1988 59.6664 95.3462 59.6664 94.9712H59.7713C59.7713 95.3122 59.8763 96.335 59.9813 96.6759L61.729 103.121Z" fill="url(#paint24_linear_151_1484)"/>
<path d="M72.2516 112.6C71.5873 110.93 70.2238 107.076 68.406 101.791C66.4484 96.1647 64.8053 91.4589 64.1762 89.515H55.961C55.3665 91.3226 53.8636 95.7893 51.9059 101.075C49.8782 106.599 48.3749 110.52 47.5359 112.6H55.4017C55.6814 111.509 56.2054 109.702 56.7299 107.826H62.9875C63.6169 109.872 64.0713 111.373 64.4559 112.6H72.2516ZM61.729 103.121H57.7087L59.4568 96.6419C59.5618 96.1988 59.6664 95.3462 59.6664 94.9712H59.7713C59.7713 95.3122 59.8763 96.335 59.9813 96.6759L61.729 103.121Z" fill="url(#paint25_linear_151_1484)"/>
<path d="M89.5521 106.735C88.3633 106.804 86.7206 106.872 85.0775 106.872H81.6863V96.3691C81.6863 93.948 81.6863 91.7658 81.7564 89.515H74.5549C74.5897 91.3226 74.6599 93.539 74.6599 98.006V104.451C74.6599 108.134 74.5549 111.032 74.52 112.6H89.3774L89.5521 106.735Z" fill="url(#paint26_linear_151_1484)"/>
<path d="M89.5521 106.735C88.3633 106.804 86.7206 106.872 85.0775 106.872H81.6863V96.3691C81.6863 93.948 81.6863 91.7658 81.7564 89.515H74.5549C74.5897 91.3226 74.6599 93.539 74.6599 98.006V104.451C74.6599 108.134 74.5549 111.032 74.52 112.6H89.3774L89.5521 106.735Z" fill="url(#paint27_linear_151_1484)"/>
<path d="M99.3054 89.515H92.0342C92.069 90.9813 92.1391 93.6411 92.1391 98.1763V104.042C92.1391 108.065 92.069 110.964 92.0342 112.6H99.2706C99.2357 110.691 99.1656 108.406 99.1656 104.314V97.8013C99.1656 93.3343 99.2357 91.0498 99.3054 89.515Z" fill="url(#paint28_linear_151_1484)"/>
<path d="M99.3054 89.515H92.0342C92.069 90.9813 92.1391 93.6411 92.1391 98.1763V104.042C92.1391 108.065 92.069 110.964 92.0342 112.6H99.2706C99.2357 110.691 99.1656 108.406 99.1656 104.314V97.8013C99.1656 93.3343 99.2357 91.0498 99.3054 89.515Z" fill="url(#paint29_linear_151_1484)"/>
<path d="M120.909 95.3462L120.839 89.515H101.822L101.717 95.3462C102.766 95.3122 104.059 95.2781 105.563 95.2781H107.765V103.939C107.765 106.872 107.73 110.725 107.66 112.6H114.721C114.687 110.555 114.652 107.179 114.652 103.973V95.2781H117.029C118.427 95.2781 119.756 95.3122 120.909 95.3462Z" fill="url(#paint30_linear_151_1484)"/>
<path d="M120.909 95.3462L120.839 89.515H101.822L101.717 95.3462C102.766 95.3122 104.059 95.2781 105.563 95.2781H107.765V103.939C107.765 106.872 107.73 110.725 107.66 112.6H114.721C114.687 110.555 114.652 107.179 114.652 103.973V95.2781H117.029C118.427 95.2781 119.756 95.3122 120.909 95.3462Z" fill="url(#paint31_linear_151_1484)"/>
<path d="M143.162 89.515H135.96L132.744 98.3129C132.604 98.6879 132.43 99.3357 132.395 99.6426H132.325C132.29 99.3357 132.115 98.6879 131.975 98.3129L129.003 89.515H121.138C121.837 90.9132 123.27 93.948 124.669 96.9147C125.892 99.5405 127.43 102.916 128.444 105.133V107.213C128.444 109.531 128.374 111.509 128.304 112.6H135.611C135.576 110.964 135.541 109.259 135.541 107.247V105.098C136.485 103.121 138.407 99.1655 139.386 97.1875C140.75 94.4596 142.183 91.3908 143.162 89.515Z" fill="url(#paint32_linear_151_1484)"/>
<path d="M143.162 89.515H135.96L132.744 98.3129C132.604 98.6879 132.43 99.3357 132.395 99.6426H132.325C132.29 99.3357 132.115 98.6879 131.975 98.3129L129.003 89.515H121.138C121.837 90.9132 123.27 93.948 124.669 96.9147C125.892 99.5405 127.43 102.916 128.444 105.133V107.213C128.444 109.531 128.374 111.509 128.304 112.6H135.611C135.576 110.964 135.541 109.259 135.541 107.247V105.098C136.485 103.121 138.407 99.1655 139.386 97.1875C140.75 94.4596 142.183 91.3908 143.162 89.515Z" fill="url(#paint33_linear_151_1484)"/>
<path d="M175.249 112.6C174.585 110.93 173.221 107.076 171.404 101.791C169.446 96.1647 167.803 91.4589 167.173 89.515H158.958C158.364 91.3226 156.861 95.7893 154.903 101.075C152.876 106.599 151.372 110.52 150.533 112.6H158.399C158.679 111.509 159.203 109.702 159.727 107.826H165.985C166.614 109.872 167.069 111.373 167.453 112.6H175.249ZM164.727 103.121H160.706L162.454 96.6419C162.559 96.1988 162.664 95.3462 162.664 94.9712H162.769C162.769 95.3122 162.873 96.335 162.978 96.6759L164.727 103.121Z" fill="url(#paint34_linear_151_1484)"/>
<path d="M175.249 112.6C174.585 110.93 173.221 107.076 171.404 101.791C169.446 96.1647 167.803 91.4589 167.173 89.515H158.958C158.364 91.3226 156.861 95.7893 154.903 101.075C152.876 106.599 151.372 110.52 150.533 112.6H158.399C158.679 111.509 159.203 109.702 159.727 107.826H165.985C166.614 109.872 167.069 111.373 167.453 112.6H175.249ZM164.727 103.121H160.706L162.454 96.6419C162.559 96.1988 162.664 95.3462 162.664 94.9712H162.769C162.769 95.3122 162.873 96.335 162.978 96.6759L164.727 103.121Z" fill="url(#paint35_linear_151_1484)"/>
<path d="M192.934 105.098C192.934 101.927 191.081 100.018 187.201 98.6879C184.649 97.8013 184.055 97.3923 184.055 96.1988C184.055 95.1075 184.963 94.4596 186.397 94.4596C187.795 94.4596 190.522 94.9712 191.99 95.9941V90.0607C190.312 89.481 188.18 89.0719 185.697 89.0719C180.384 89.0719 176.679 92.2089 176.679 96.8466C176.679 99.6086 177.762 101.825 181.747 103.394C184.264 104.383 185.103 104.758 185.103 105.883C185.103 106.906 184.334 107.724 182.796 107.724C181.188 107.724 178.916 107.213 176.608 105.576V111.646C178.321 112.43 180.803 113.044 183.076 113.044C189.543 113.044 192.934 109.6 192.934 105.098Z" fill="url(#paint36_linear_151_1484)"/>
<path d="M192.934 105.098C192.934 101.927 191.081 100.018 187.201 98.6879C184.649 97.8013 184.055 97.3923 184.055 96.1988C184.055 95.1075 184.963 94.4596 186.397 94.4596C187.795 94.4596 190.522 94.9712 191.99 95.9941V90.0607C190.312 89.481 188.18 89.0719 185.697 89.0719C180.384 89.0719 176.679 92.2089 176.679 96.8466C176.679 99.6086 177.762 101.825 181.747 103.394C184.264 104.383 185.103 104.758 185.103 105.883C185.103 106.906 184.334 107.724 182.796 107.724C181.188 107.724 178.916 107.213 176.608 105.576V111.646C178.321 112.43 180.803 113.044 183.076 113.044C189.543 113.044 192.934 109.6 192.934 105.098Z" fill="url(#paint37_linear_151_1484)"/>
<path d="M211.403 105.098C211.403 101.927 209.55 100.018 205.67 98.6879C203.118 97.8013 202.524 97.3923 202.524 96.1988C202.524 95.1075 203.433 94.4596 204.866 94.4596C206.265 94.4596 208.991 95.1756 210.459 96.1988V90.0607C208.782 89.481 206.649 89.0719 204.167 89.0719C198.853 89.0719 195.148 92.2089 195.148 96.8466C195.148 99.6086 196.231 101.825 200.217 103.394C202.734 104.383 203.572 104.758 203.572 105.883C203.572 106.906 202.804 107.724 201.265 107.724C199.657 107.724 197.385 107.213 195.078 105.576V111.646C196.791 112.43 199.273 113.044 201.545 113.044C208.012 113.044 211.403 109.6 211.403 105.098Z" fill="url(#paint38_linear_151_1484)"/>
<path d="M211.403 105.098C211.403 101.927 209.55 100.018 205.67 98.6879C203.118 97.8013 202.524 97.3923 202.524 96.1988C202.524 95.1075 203.433 94.4596 204.866 94.4596C206.265 94.4596 208.991 95.1756 210.459 96.1988V90.0607C208.782 89.481 206.649 89.0719 204.167 89.0719C198.853 89.0719 195.148 92.2089 195.148 96.8466C195.148 99.6086 196.231 101.825 200.217 103.394C202.734 104.383 203.572 104.758 203.572 105.883C203.572 106.906 202.804 107.724 201.265 107.724C199.657 107.724 197.385 107.213 195.078 105.576V111.646C196.791 112.43 199.273 113.044 201.545 113.044C208.012 113.044 211.403 109.6 211.403 105.098Z" fill="url(#paint39_linear_151_1484)"/>
<path d="M234.734 89.515H227.603C227.637 90.5723 227.708 92.9252 227.708 95.0053V102.78C227.708 106.019 226.414 107.11 224.491 107.11C222.324 107.11 221.31 105.644 221.31 102.882V95.1075C221.31 92.9252 221.415 90.7085 221.45 89.515H214.144C214.214 91.0498 214.249 92.7886 214.249 95.0393V102.473C214.249 109.804 217.57 113.078 224.107 113.078C231.168 113.078 234.664 109.225 234.664 102.302V94.9027C234.664 92.8226 234.699 90.777 234.734 89.515Z" fill="url(#paint40_linear_151_1484)"/>
<path d="M234.734 89.515H227.603C227.637 90.5723 227.708 92.9252 227.708 95.0053V102.78C227.708 106.019 226.414 107.11 224.491 107.11C222.324 107.11 221.31 105.644 221.31 102.882V95.1075C221.31 92.9252 221.415 90.7085 221.45 89.515H214.144C214.214 91.0498 214.249 92.7886 214.249 95.0393V102.473C214.249 109.804 217.57 113.078 224.107 113.078C231.168 113.078 234.664 109.225 234.664 102.302V94.9027C234.664 92.8226 234.699 90.777 234.734 89.515Z" fill="url(#paint41_linear_151_1484)"/>
<path d="M259.351 112.6C257.848 110.145 255.051 105.405 253.513 102.814C255.995 101.757 257.882 99.3698 257.882 96.1307C257.882 92.5158 255.785 89.481 249.458 89.481C246.521 89.481 242.466 89.515 238.865 89.515C238.9 91.2882 238.935 93.0614 238.935 97.4604V104.894C238.935 108.781 238.865 110.896 238.83 112.6H246.066C245.997 110.657 245.962 107.997 245.962 104.485C246.346 104.485 246.801 104.485 247.29 104.485C248.059 106.156 250.471 110.998 251.275 112.6H259.351ZM250.646 97.0169C250.646 98.722 249.248 99.6426 247.675 99.6426C247.185 99.6426 246.451 99.6426 245.962 99.6426V94.4937C246.416 94.4937 247.15 94.4256 247.64 94.4256C249.667 94.4256 250.646 95.4143 250.646 97.0169Z" fill="url(#paint42_linear_151_1484)"/>
<path d="M259.351 112.6C257.848 110.145 255.051 105.405 253.513 102.814C255.995 101.757 257.882 99.3698 257.882 96.1307C257.882 92.5158 255.785 89.481 249.458 89.481C246.521 89.481 242.466 89.515 238.865 89.515C238.9 91.2882 238.935 93.0614 238.935 97.4604V104.894C238.935 108.781 238.865 110.896 238.83 112.6H246.066C245.997 110.657 245.962 107.997 245.962 104.485C246.346 104.485 246.801 104.485 247.29 104.485C248.059 106.156 250.471 110.998 251.275 112.6H259.351ZM250.646 97.0169C250.646 98.722 249.248 99.6426 247.675 99.6426C247.185 99.6426 246.451 99.6426 245.962 99.6426V94.4937C246.416 94.4937 247.15 94.4256 247.64 94.4256C249.667 94.4256 250.646 95.4143 250.646 97.0169Z" fill="url(#paint43_linear_151_1484)"/>
<path d="M284.323 112.6C283.659 110.93 282.295 107.076 280.478 101.791C278.52 96.1647 276.877 91.4589 276.248 89.515H268.033C267.438 91.3226 265.935 95.7893 263.977 101.075C261.95 106.599 260.446 110.52 259.607 112.6H267.473C267.753 111.509 268.277 109.702 268.801 107.826H275.059C275.688 109.872 276.143 111.373 276.527 112.6H284.323ZM273.801 103.121H269.78L271.528 96.6419C271.633 96.1988 271.738 95.3462 271.738 94.9712H271.843C271.843 95.3122 271.948 96.335 272.053 96.6759L273.801 103.121Z" fill="url(#paint44_linear_151_1484)"/>
<path d="M284.323 112.6C283.659 110.93 282.295 107.076 280.478 101.791C278.52 96.1647 276.877 91.4589 276.248 89.515H268.033C267.438 91.3226 265.935 95.7893 263.977 101.075C261.95 106.599 260.446 110.52 259.607 112.6H267.473C267.753 111.509 268.277 109.702 268.801 107.826H275.059C275.688 109.872 276.143 111.373 276.527 112.6H284.323ZM273.801 103.121H269.78L271.528 96.6419C271.633 96.1988 271.738 95.3462 271.738 94.9712H271.843C271.843 95.3122 271.948 96.335 272.053 96.6759L273.801 103.121Z" fill="url(#paint45_linear_151_1484)"/>
<path d="M309.384 89.515H302.742V101.007C302.742 101.518 302.847 102.439 302.917 102.916H302.812C302.672 102.575 302.428 101.996 302.148 101.621L293.513 89.515H286.626C286.696 91.1179 286.696 94.2209 286.696 97.4604V104.246C286.696 107.417 286.662 111.237 286.626 112.6H293.164V100.29C293.164 99.8814 293.094 99.097 292.989 98.5857H293.094C293.199 98.9607 293.548 99.7792 293.793 100.12L303.022 112.669H309.35C309.35 111.134 309.314 108.099 309.314 104.11V97.3582C309.314 93.3343 309.314 91.0154 309.384 89.515Z" fill="url(#paint46_linear_151_1484)"/>
<path d="M309.384 89.515H302.742V101.007C302.742 101.518 302.847 102.439 302.917 102.916H302.812C302.672 102.575 302.428 101.996 302.148 101.621L293.513 89.515H286.626C286.696 91.1179 286.696 94.2209 286.696 97.4604V104.246C286.696 107.417 286.662 111.237 286.626 112.6H293.164V100.29C293.164 99.8814 293.094 99.097 292.989 98.5857H293.094C293.199 98.9607 293.548 99.7792 293.793 100.12L303.022 112.669H309.35C309.35 111.134 309.314 108.099 309.314 104.11V97.3582C309.314 93.3343 309.314 91.0154 309.384 89.515Z" fill="url(#paint47_linear_151_1484)"/>
<path d="M331.558 90.0075C330.02 89.5985 327.713 89.14 325.825 89.14C318.239 89.14 312.611 93.914 312.611 101.621C312.611 108.781 317.575 113.078 324.986 113.078C327.223 113.078 329.845 112.669 331.558 112.021V106.1C330.195 106.919 327.853 107.349 326.244 107.349C322.504 107.349 320.057 105.064 320.057 101.246C320.057 97.3923 322.609 95.0393 326.42 95.0393C327.993 95.0393 330.335 95.2111 331.558 95.9956V90.0075Z" fill="url(#paint48_linear_151_1484)"/>
<path d="M331.558 90.0075C330.02 89.5985 327.713 89.14 325.825 89.14C318.239 89.14 312.611 93.914 312.611 101.621C312.611 108.781 317.575 113.078 324.986 113.078C327.223 113.078 329.845 112.669 331.558 112.021V106.1C330.195 106.919 327.853 107.349 326.244 107.349C322.504 107.349 320.057 105.064 320.057 101.246C320.057 97.3923 322.609 95.0393 326.42 95.0393C327.993 95.0393 330.335 95.2111 331.558 95.9956V90.0075Z" fill="url(#paint49_linear_151_1484)"/>
<path d="M349.518 107.179C348.12 107.247 347.525 107.179 345.079 107.179H341.758V103.462H344.939C346.721 103.462 348.26 103.462 349.518 103.462L349.448 98.6198C348.05 98.6539 346.617 98.6198 344.799 98.6198H341.758V94.9712H344.764C347.071 94.9712 348.26 94.9372 349.518 94.9712L349.448 89.515H334.626C334.661 91.0154 334.731 93.539 334.731 97.631V104.28C334.731 108.134 334.731 111.1 334.626 112.6H349.518V107.179Z" fill="url(#paint50_linear_151_1484)"/>
<path d="M349.518 107.179C348.12 107.247 347.525 107.179 345.079 107.179H341.758V103.462H344.939C346.721 103.462 348.26 103.462 349.518 103.462L349.448 98.6198C348.05 98.6539 346.617 98.6198 344.799 98.6198H341.758V94.9712H344.764C347.071 94.9712 348.26 94.9372 349.518 94.9712L349.448 89.515H334.626C334.661 91.0154 334.731 93.539 334.731 97.631V104.28C334.731 108.134 334.731 111.1 334.626 112.6H349.518V107.179Z" fill="url(#paint51_linear_151_1484)"/>
</g>
<defs>
<linearGradient id="paint0_linear_151_1484" x1="-nan" y1="-nan" x2="-nan" y2="-nan" gradientUnits="userSpaceOnUse">
<stop stop-color="#CA7C36"/>
<stop offset="0.5" stop-color="#F3B833"/>
<stop offset="1" stop-color="#CA7C36"/>
</linearGradient>
<linearGradient id="paint1_linear_151_1484" x1="-nan" y1="-nan" x2="-nan" y2="-nan" gradientUnits="userSpaceOnUse">
<stop stop-color="#CA7C36" stop-opacity="0"/>
<stop offset="0.5" stop-color="#F3B833"/>
<stop offset="1" stop-color="#CA7C36"/>
</linearGradient>
<linearGradient id="paint2_linear_151_1484" x1="3.22101" y1="17.0284" x2="13.2074" y2="77.3236" gradientUnits="userSpaceOnUse">
<stop stop-color="#CA7C36"/>
<stop offset="0.5" stop-color="#F3B833"/>
<stop offset="1" stop-color="#CA7C36"/>
</linearGradient>
<linearGradient id="paint3_linear_151_1484" x1="296.526" y1="48.6527" x2="313" y2="112.002" gradientUnits="userSpaceOnUse">
<stop stop-color="#CA7C36" stop-opacity="0"/>
<stop offset="0.5" stop-color="#FFC301"/>
<stop offset="1" stop-color="#9B5500"/>
</linearGradient>
<linearGradient id="paint4_linear_151_1484" x1="3.22096" y1="17.0285" x2="13.2073" y2="77.3236" gradientUnits="userSpaceOnUse">
<stop stop-color="#CA7C36"/>
<stop offset="0.5" stop-color="#F3B833"/>
<stop offset="1" stop-color="#CA7C36"/>
</linearGradient>
<linearGradient id="paint5_linear_151_1484" x1="296.526" y1="48.6527" x2="313" y2="112.002" gradientUnits="userSpaceOnUse">
<stop stop-color="#CA7C36" stop-opacity="0"/>
<stop offset="0.5" stop-color="#F3B833"/>
<stop offset="1" stop-color="#CA7C36"/>
</linearGradient>
<linearGradient id="paint6_linear_151_1484" x1="3.22101" y1="17.0284" x2="13.2073" y2="77.3236" gradientUnits="userSpaceOnUse">
<stop stop-color="#CA7C36"/>
<stop offset="0.5" stop-color="#F3B833"/>
<stop offset="1" stop-color="#CA7C36"/>
</linearGradient>
<linearGradient id="paint7_linear_151_1484" x1="296.526" y1="48.6527" x2="313" y2="112.002" gradientUnits="userSpaceOnUse">
<stop stop-color="#CA7C36" stop-opacity="0"/>
<stop offset="0.5" stop-color="#F3B833"/>
<stop offset="1" stop-color="#CA7C36"/>
</linearGradient>
<linearGradient id="paint8_linear_151_1484" x1="3.22102" y1="17.0285" x2="13.2074" y2="77.3236" gradientUnits="userSpaceOnUse">
<stop stop-color="#CA7C36"/>
<stop offset="0.5" stop-color="#F3B833"/>
<stop offset="1" stop-color="#CA7C36"/>
</linearGradient>
<linearGradient id="paint9_linear_151_1484" x1="296.526" y1="48.6527" x2="313.001" y2="112.002" gradientUnits="userSpaceOnUse">
<stop stop-color="#CA7C36" stop-opacity="0"/>
<stop offset="0.5" stop-color="#F3B833"/>
<stop offset="1" stop-color="#CA7C36"/>
</linearGradient>
<linearGradient id="paint10_linear_151_1484" x1="3.22102" y1="17.0284" x2="13.2074" y2="77.3236" gradientUnits="userSpaceOnUse">
<stop stop-color="#CA7C36"/>
<stop offset="0.5" stop-color="#F3B833"/>
<stop offset="1" stop-color="#CA7C36"/>
</linearGradient>
<linearGradient id="paint11_linear_151_1484" x1="296.526" y1="48.6527" x2="313" y2="112.002" gradientUnits="userSpaceOnUse">
<stop stop-color="#CA7C36" stop-opacity="0"/>
<stop offset="0.5" stop-color="#F3B833"/>
<stop offset="1" stop-color="#CA7C36"/>
</linearGradient>
<linearGradient id="paint12_linear_151_1484" x1="3.22094" y1="17.0284" x2="13.2073" y2="77.3236" gradientUnits="userSpaceOnUse">
<stop stop-color="#CA7C36"/>
<stop offset="0.5" stop-color="#F3B833"/>
<stop offset="1" stop-color="#9B5500"/>
</linearGradient>
<linearGradient id="paint13_linear_151_1484" x1="296.526" y1="48.6527" x2="313" y2="112.002" gradientUnits="userSpaceOnUse">
<stop stop-color="#CA7C36" stop-opacity="0"/>
<stop offset="0.5" stop-color="#F3B833"/>
<stop offset="1" stop-color="#CA7C36"/>
</linearGradient>
<linearGradient id="paint14_linear_151_1484" x1="3.22121" y1="17.0284" x2="13.2076" y2="77.3236" gradientUnits="userSpaceOnUse">
<stop stop-color="#CA7C36"/>
<stop offset="0.5" stop-color="#F3B833"/>
<stop offset="1" stop-color="#9B5500"/>
</linearGradient>
<linearGradient id="paint15_linear_151_1484" x1="296.526" y1="48.6527" x2="313.001" y2="112.002" gradientUnits="userSpaceOnUse">
<stop stop-color="#CA7C36" stop-opacity="0"/>
<stop offset="0.5" stop-color="#F3B833"/>
<stop offset="1" stop-color="#CA7C36"/>
</linearGradient>
<linearGradient id="paint16_linear_151_1484" x1="3.22074" y1="17.0284" x2="13.2071" y2="77.3236" gradientUnits="userSpaceOnUse">
<stop stop-color="#CA7C36"/>
<stop offset="0.5" stop-color="#F3B833"/>
<stop offset="1" stop-color="#9B5500"/>
</linearGradient>
<linearGradient id="paint17_linear_151_1484" x1="296.526" y1="48.6527" x2="313" y2="112.002" gradientUnits="userSpaceOnUse">
<stop stop-color="#CA7C36" stop-opacity="0"/>
<stop offset="0.5" stop-color="#F3B833"/>
<stop offset="1" stop-color="#CA7C36"/>
</linearGradient>
<linearGradient id="paint18_linear_151_1484" x1="3.22103" y1="17.0284" x2="13.2074" y2="77.3236" gradientUnits="userSpaceOnUse">
<stop stop-color="#CA7C36"/>
<stop offset="0.5" stop-color="#F3B833"/>
<stop offset="1" stop-color="#9B5500"/>
</linearGradient>
<linearGradient id="paint19_linear_151_1484" x1="296.526" y1="48.6527" x2="313" y2="112.002" gradientUnits="userSpaceOnUse">
<stop stop-color="#CA7C36" stop-opacity="0"/>
<stop offset="0.5" stop-color="#F3B833"/>
<stop offset="1" stop-color="#CA7C36"/>
</linearGradient>
<linearGradient id="paint20_linear_151_1484" x1="0" y1="89.0719" x2="3.88833" y2="124.409" gradientUnits="userSpaceOnUse">
<stop stop-color="#CA7C36"/>
<stop offset="0.5" stop-color="#F3B833"/>
<stop offset="1" stop-color="#CA7C36"/>
</linearGradient>
<linearGradient id="paint21_linear_151_1484" x1="157.453" y1="107.036" x2="161.927" y2="132.462" gradientUnits="userSpaceOnUse">
<stop stop-color="#CA7C36" stop-opacity="0"/>
<stop offset="0.5" stop-color="#F3B833"/>
<stop offset="1" stop-color="#CA7C36"/>
</linearGradient>
<linearGradient id="paint22_linear_151_1484" x1="-2.97903e-06" y1="89.0719" x2="3.88833" y2="124.409" gradientUnits="userSpaceOnUse">
<stop stop-color="#CA7C36"/>
<stop offset="0.5" stop-color="#F3B833"/>
<stop offset="1" stop-color="#CA7C36"/>
</linearGradient>
<linearGradient id="paint23_linear_151_1484" x1="157.453" y1="107.036" x2="161.927" y2="132.462" gradientUnits="userSpaceOnUse">
<stop stop-color="#CA7C36" stop-opacity="0"/>
<stop offset="0.5" stop-color="#F3B833"/>
<stop offset="1" stop-color="#CA7C36"/>
</linearGradient>
<linearGradient id="paint24_linear_151_1484" x1="-2.89155e-05" y1="89.0719" x2="3.8883" y2="124.409" gradientUnits="userSpaceOnUse">
<stop stop-color="#CA7C36"/>
<stop offset="0.5" stop-color="#F3B833"/>
<stop offset="1" stop-color="#CA7C36"/>
</linearGradient>
<linearGradient id="paint25_linear_151_1484" x1="157.453" y1="107.036" x2="161.927" y2="132.462" gradientUnits="userSpaceOnUse">
<stop stop-color="#CA7C36" stop-opacity="0"/>
<stop offset="0.5" stop-color="#F3B833"/>
<stop offset="1" stop-color="#CA7C36"/>
</linearGradient>
<linearGradient id="paint26_linear_151_1484" x1="2.29022e-05" y1="89.0719" x2="3.88835" y2="124.409" gradientUnits="userSpaceOnUse">
<stop stop-color="#CA7C36"/>
<stop offset="0.5" stop-color="#F3B833"/>
<stop offset="1" stop-color="#CA7C36"/>
</linearGradient>
<linearGradient id="paint27_linear_151_1484" x1="157.453" y1="107.036" x2="161.927" y2="132.462" gradientUnits="userSpaceOnUse">
<stop stop-color="#CA7C36" stop-opacity="0"/>
<stop offset="0.5" stop-color="#F3B833"/>
<stop offset="1" stop-color="#CA7C36"/>
</linearGradient>
<linearGradient id="paint28_linear_151_1484" x1="3.74198e-05" y1="89.0719" x2="3.88837" y2="124.409" gradientUnits="userSpaceOnUse">
<stop stop-color="#CA7C36"/>
<stop offset="0.5" stop-color="#F3B833"/>
<stop offset="1" stop-color="#CA7C36"/>
</linearGradient>
<linearGradient id="paint29_linear_151_1484" x1="157.453" y1="107.036" x2="161.927" y2="132.462" gradientUnits="userSpaceOnUse">
<stop stop-color="#CA7C36" stop-opacity="0"/>
<stop offset="0.5" stop-color="#F3B833"/>
<stop offset="1" stop-color="#CA7C36"/>
</linearGradient>
<linearGradient id="paint30_linear_151_1484" x1="-3.02219e-06" y1="89.0719" x2="3.88833" y2="124.409" gradientUnits="userSpaceOnUse">
<stop stop-color="#CA7C36"/>
<stop offset="0.5" stop-color="#F3B833"/>
<stop offset="1" stop-color="#CA7C36"/>
</linearGradient>
<linearGradient id="paint31_linear_151_1484" x1="157.453" y1="107.036" x2="161.927" y2="132.462" gradientUnits="userSpaceOnUse">
<stop stop-color="#CA7C36" stop-opacity="0"/>
<stop offset="0.5" stop-color="#F3B833"/>
<stop offset="1" stop-color="#CA7C36"/>
</linearGradient>
<linearGradient id="paint32_linear_151_1484" x1="-1.57528e-05" y1="89.0719" x2="3.88832" y2="124.409" gradientUnits="userSpaceOnUse">
<stop stop-color="#CA7C36"/>
<stop offset="0.5" stop-color="#F3B833"/>
<stop offset="1" stop-color="#9B5500"/>
</linearGradient>
<linearGradient id="paint33_linear_151_1484" x1="157.453" y1="107.036" x2="161.927" y2="132.462" gradientUnits="userSpaceOnUse">
<stop stop-color="#CA7C36" stop-opacity="0"/>
<stop offset="0.5" stop-color="#F3B833"/>
<stop offset="1" stop-color="#CA7C36"/>
</linearGradient>
<linearGradient id="paint34_linear_151_1484" x1="-1.49008e-05" y1="89.0719" x2="3.88832" y2="124.409" gradientUnits="userSpaceOnUse">
<stop stop-color="#CA7C36"/>
<stop offset="0.5" stop-color="#F3B833"/>
<stop offset="1" stop-color="#9B5500"/>
</linearGradient>
<linearGradient id="paint35_linear_151_1484" x1="157.453" y1="107.036" x2="161.927" y2="132.462" gradientUnits="userSpaceOnUse">
<stop stop-color="#CA7C36" stop-opacity="0"/>
<stop offset="0.5" stop-color="#F3B833"/>
<stop offset="1" stop-color="#CA7C36"/>
</linearGradient>
<linearGradient id="paint36_linear_151_1484" x1="-4.47472e-06" y1="89.0719" x2="3.88833" y2="124.409" gradientUnits="userSpaceOnUse">
<stop stop-color="#CA7C36"/>
<stop offset="0.5" stop-color="#F3B833"/>
<stop offset="1" stop-color="#CA7C36"/>
</linearGradient>
<linearGradient id="paint37_linear_151_1484" x1="157.453" y1="107.036" x2="161.927" y2="132.462" gradientUnits="userSpaceOnUse">
<stop stop-color="#9B5500" stop-opacity="0"/>
<stop offset="0.5" stop-color="#F3B833"/>
<stop offset="1" stop-color="#9B5500"/>
</linearGradient>
<linearGradient id="paint38_linear_151_1484" x1="0.000190844" y1="89.0719" x2="3.88852" y2="124.409" gradientUnits="userSpaceOnUse">
<stop stop-color="#CA7C36"/>
<stop offset="0.5" stop-color="#F3B833"/>
<stop offset="1" stop-color="#CA7C36"/>
</linearGradient>
<linearGradient id="paint39_linear_151_1484" x1="157.453" y1="107.036" x2="161.927" y2="132.462" gradientUnits="userSpaceOnUse">
<stop stop-color="#9B5500" stop-opacity="0"/>
<stop offset="0.5" stop-color="#F3B833"/>
<stop offset="1" stop-color="#9B5500"/>
</linearGradient>
<linearGradient id="paint40_linear_151_1484" x1="2.43345e-05" y1="89.0719" x2="3.88836" y2="124.409" gradientUnits="userSpaceOnUse">
<stop stop-color="#CA7C36"/>
<stop offset="0.5" stop-color="#F3B833"/>
<stop offset="1" stop-color="#CA7C36"/>
</linearGradient>
<linearGradient id="paint41_linear_151_1484" x1="157.453" y1="107.036" x2="161.927" y2="132.462" gradientUnits="userSpaceOnUse">
<stop stop-color="#CA7C36" stop-opacity="0"/>
<stop offset="0.5" stop-color="#F3B833"/>
<stop offset="1" stop-color="#CA7C36"/>
</linearGradient>
<linearGradient id="paint42_linear_151_1484" x1="-0.000157003" y1="89.0719" x2="3.88817" y2="124.409" gradientUnits="userSpaceOnUse">
<stop stop-color="#CA7C36"/>
<stop offset="0.5" stop-color="#F3B833"/>
<stop offset="1" stop-color="#CA7C36"/>
</linearGradient>
<linearGradient id="paint43_linear_151_1484" x1="157.453" y1="107.036" x2="161.927" y2="132.462" gradientUnits="userSpaceOnUse">
<stop stop-color="#CA7C36" stop-opacity="0"/>
<stop offset="0.5" stop-color="#F3B833"/>
<stop offset="1" stop-color="#CA7C36"/>
</linearGradient>
<linearGradient id="paint44_linear_151_1484" x1="0.000113554" y1="89.0719" x2="3.88845" y2="124.409" gradientUnits="userSpaceOnUse">
<stop stop-color="#CA7C36"/>
<stop offset="0.5" stop-color="#F3B833"/>
<stop offset="1" stop-color="#CA7C36"/>
</linearGradient>
<linearGradient id="paint45_linear_151_1484" x1="157.453" y1="107.036" x2="161.927" y2="132.462" gradientUnits="userSpaceOnUse">
<stop stop-color="#CA7C36" stop-opacity="0"/>
<stop offset="0.5" stop-color="#F3B833"/>
<stop offset="1" stop-color="#CA7C36"/>
</linearGradient>
<linearGradient id="paint46_linear_151_1484" x1="-0.000107061" y1="89.0719" x2="3.88822" y2="124.409" gradientUnits="userSpaceOnUse">
<stop stop-color="#CA7C36"/>
<stop offset="0.5" stop-color="#F3B833"/>
<stop offset="1" stop-color="#CA7C36"/>
</linearGradient>
<linearGradient id="paint47_linear_151_1484" x1="157.453" y1="107.036" x2="161.927" y2="132.462" gradientUnits="userSpaceOnUse">
<stop stop-color="#CA7C36" stop-opacity="0"/>
<stop offset="0.5" stop-color="#F3B833"/>
<stop offset="1" stop-color="#CA7C36"/>
</linearGradient>
<linearGradient id="paint48_linear_151_1484" x1="-7.77787e-06" y1="89.0719" x2="3.88832" y2="124.409" gradientUnits="userSpaceOnUse">
<stop stop-color="#CA7C36"/>
<stop offset="0.5" stop-color="#F3B833"/>
<stop offset="1" stop-color="#CA7C36"/>
</linearGradient>
<linearGradient id="paint49_linear_151_1484" x1="157.453" y1="107.036" x2="161.927" y2="132.462" gradientUnits="userSpaceOnUse">
<stop stop-color="#CA7C36" stop-opacity="0"/>
<stop offset="0.5" stop-color="#F3B833"/>
<stop offset="1" stop-color="#CA7C36"/>
</linearGradient>
<linearGradient id="paint50_linear_151_1484" x1="-0.000349512" y1="89.0719" x2="3.88798" y2="124.409" gradientUnits="userSpaceOnUse">
<stop stop-color="#CA7C36"/>
<stop offset="0.5" stop-color="#FFC301"/>
<stop offset="1" stop-color="#CA7C36"/>
</linearGradient>
<linearGradient id="paint51_linear_151_1484" x1="157.452" y1="107.036" x2="161.927" y2="132.462" gradientUnits="userSpaceOnUse">
<stop stop-color="#CA7C36" stop-opacity="0"/>
<stop offset="0.5" stop-color="#F3B833"/>
<stop offset="1" stop-color="#CA7C36"/>
</linearGradient>
<clipPath id="clip0_151_1484">
<rect width="540" height="125" fill="white"/>
</clipPath>
</defs>
</svg>
