<svg width="44" height="44" viewBox="0 0 44 44" fill="none" xmlns="http://www.w3.org/2000/svg">
<rect width="44" height="44" rx="10" fill="#FEED01"/>
<path d="M32 19.2098V28.0714C32 28.5625 31.8251 28.9829 31.4754 29.3326C31.1257 29.6823 30.7054 29.8571 30.2143 29.8571H13.7857C13.2946 29.8571 12.8743 29.6823 12.5246 29.3326C12.1749 28.9829 12 28.5625 12 28.0714V19.2098C12.3274 19.5744 12.7031 19.898 13.1272 20.1808C15.8207 22.0111 17.6696 23.2946 18.6741 24.0312C19.0982 24.3437 19.4423 24.5874 19.7065 24.7622C19.9706 24.9371 20.3222 25.1157 20.7612 25.298C21.2001 25.4802 21.6094 25.5714 21.9888 25.5714H22.0112C22.3906 25.5714 22.7999 25.4802 23.2388 25.298C23.6778 25.1157 24.0294 24.9371 24.2935 24.7622C24.5577 24.5874 24.9018 24.3437 25.3259 24.0312C26.5908 23.116 28.4435 21.8326 30.8839 20.1808C31.308 19.8906 31.6801 19.5669 32 19.2098ZM32 15.9285C32 16.5163 31.8177 17.0781 31.4531 17.6138C31.0885 18.1495 30.6347 18.6071 30.0915 18.9866C27.2939 20.9285 25.5528 22.1376 24.8683 22.6138C24.7939 22.6659 24.6358 22.7794 24.394 22.9542C24.1522 23.1291 23.9513 23.2704 23.7913 23.3783C23.6313 23.4862 23.4379 23.6071 23.2109 23.741C22.984 23.875 22.7701 23.9754 22.5692 24.0424C22.3683 24.1093 22.1823 24.1428 22.0112 24.1428H21.9888C21.8177 24.1428 21.6317 24.1093 21.4308 24.0424C21.2299 23.9754 21.016 23.875 20.7891 23.741C20.5621 23.6071 20.3687 23.4862 20.2087 23.3783C20.0487 23.2704 19.8478 23.1291 19.606 22.9542C19.3642 22.7794 19.2061 22.6659 19.1317 22.6138C18.4546 22.1376 17.4799 21.4587 16.2076 20.577C14.9353 19.6953 14.1726 19.1651 13.9196 18.9866C13.4583 18.6741 13.0231 18.2444 12.6138 17.6975C12.2046 17.1506 12 16.6428 12 16.1741C12 15.5937 12.1544 15.1101 12.4632 14.7232C12.7719 14.3363 13.2128 14.1428 13.7857 14.1428H30.2143C30.6979 14.1428 31.1164 14.3177 31.4699 14.6674C31.8233 15.0171 32 15.4375 32 15.9285Z" fill="black"/>
</svg>
