<svg width="24" height="25" viewBox="0 0 24 25" fill="none" xmlns="http://www.w3.org/2000/svg">
<path d="M22.4955 24.9204C9.699 24.9384 -0.0134859 15.1104 1.4056e-05 2.42491C1.4056e-05 1.59541 0.672013 0.92041 1.50001 0.92041H5.46001C6.20251 0.92041 6.83401 1.46641 6.94351 2.20141C7.20466 3.96399 7.71739 5.67998 8.46601 7.2969L8.62051 7.6299C8.72429 7.85399 8.74661 8.10727 8.68363 8.34605C8.62065 8.58484 8.47631 8.79416 8.27551 8.9379C7.04851 9.8139 6.58051 11.5764 7.53601 12.9504C8.73898 14.6804 10.2404 16.1823 11.97 17.3859C13.3455 18.3399 15.108 17.8719 15.9825 16.6464C16.1261 16.445 16.3356 16.3001 16.5747 16.2368C16.8138 16.1736 17.0676 16.1959 17.292 16.2999L17.6235 16.4529C19.2405 17.2029 20.9565 17.7159 22.719 17.9769C23.454 18.0864 24 18.7179 24 19.4619V23.4204C24 23.6175 23.9611 23.8127 23.8857 23.9948C23.8102 24.1768 23.6996 24.3423 23.5601 24.4816C23.4207 24.6209 23.2551 24.7313 23.073 24.8066C22.8908 24.8819 22.6956 24.9206 22.4985 24.9204H22.4955Z" fill="#272727"/>
</svg>
