<svg width="44" height="44" viewBox="0 0 44 44" fill="none" xmlns="http://www.w3.org/2000/svg">
<rect width="44" height="44" rx="10" fill="#FEED01"/>
<path d="M32.4955 34C19.699 34.018 9.98651 24.19 10 11.5045C10 10.675 10.672 10 11.5 10H15.46C16.2025 10 16.834 10.546 16.9435 11.281C17.2047 13.0436 17.7174 14.7596 18.466 16.3765L18.6205 16.7095C18.7243 16.9336 18.7466 17.1869 18.6836 17.4256C18.6206 17.6644 18.4763 17.8737 18.2755 18.0175C17.0485 18.8935 16.5805 20.656 17.536 22.03C18.739 23.76 20.2404 25.2619 21.97 26.4655C23.3455 27.4195 25.108 26.9515 25.9825 25.726C26.1261 25.5246 26.3356 25.3797 26.5747 25.3164C26.8138 25.2531 27.0676 25.2755 27.292 25.3795L27.6235 25.5325C29.2405 26.2825 30.9565 26.7955 32.719 27.0565C33.454 27.166 34 27.7975 34 28.5415V32.5C34 32.6971 33.9611 32.8923 33.8857 33.0744C33.8102 33.2564 33.6996 33.4219 33.5601 33.5612C33.4207 33.7005 33.2551 33.8109 33.073 33.8862C32.8908 33.9615 32.6956 34.0002 32.4985 34H32.4955Z" fill="black"/>
</svg>
